<svg width="1282" height="405" viewBox="0 0 1282 405" fill="none" xmlns="http://www.w3.org/2000/svg">
<path d="M4.32134e-07 261.5C4.32134e-07 232.5 5.83333 207.167 17.5 185.5C29.5 163.833 46 147.167 67 135.5C88.3333 123.833 112.667 118 140 118C175 118 204.167 127.167 227.5 145.5C251.167 163.833 266.667 189.667 274 223H183C175.333 201.667 160.5 191 138.5 191C122.833 191 110.333 197.167 101 209.5C91.6667 221.5 87 238.833 87 261.5C87 284.167 91.6667 301.667 101 314C110.333 326 122.833 332 138.5 332C160.5 332 175.333 321.333 183 300H274C266.667 332.667 251.167 358.333 227.5 377C203.833 395.667 174.667 405 140 405C112.667 405 88.3333 399.167 67 387.5C46 375.833 29.5 359.167 17.5 337.5C5.83333 315.833 4.32134e-07 290.5 4.32134e-07 261.5ZM405.234 335H517.234V401H319.734V50H405.234V335ZM601.016 93C586.016 93 573.682 88.6666 564.016 80C554.682 71 550.016 60 550.016 47C550.016 33.6667 554.682 22.6666 564.016 14C573.682 4.99997 586.016 0.499971 601.016 0.499971C615.682 0.499971 627.682 4.99997 637.016 14C646.682 22.6666 651.516 33.6667 651.516 47C651.516 60 646.682 71 637.016 80C627.682 88.6666 615.682 93 601.016 93ZM643.516 122V401H558.016V122H643.516ZM830.977 321L891.477 122H982.477L883.477 401H777.977L678.977 122H770.477L830.977 321ZM1281.46 257C1281.46 265 1280.96 273.333 1279.96 282H1086.46C1087.8 299.333 1093.3 312.667 1102.96 322C1112.96 331 1125.13 335.5 1139.46 335.5C1160.8 335.5 1175.63 326.5 1183.96 308.5H1274.96C1270.3 326.833 1261.8 343.333 1249.46 358C1237.46 372.667 1222.3 384.167 1203.96 392.5C1185.63 400.833 1165.13 405 1142.46 405C1115.13 405 1090.8 399.167 1069.46 387.5C1048.13 375.833 1031.46 359.167 1019.46 337.5C1007.46 315.833 1001.46 290.5 1001.46 261.5C1001.46 232.5 1007.3 207.167 1018.96 185.5C1030.96 163.833 1047.63 147.167 1068.96 135.5C1090.3 123.833 1114.8 118 1142.46 118C1169.46 118 1193.46 123.667 1214.46 135C1235.46 146.333 1251.8 162.5 1263.46 183.5C1275.46 204.5 1281.46 229 1281.46 257ZM1193.96 234.5C1193.96 219.833 1188.96 208.167 1178.96 199.5C1168.96 190.833 1156.46 186.5 1141.46 186.5C1127.13 186.5 1114.96 190.667 1104.96 199C1095.3 207.333 1089.3 219.167 1086.96 234.5H1193.96Z" fill="#016478"/>
</svg>
